<svg width="274" height="60" viewBox="0 0 274 60" fill="none" xmlns="http://www.w3.org/2000/svg">
<path d="M100.115 45.4658V60.0013H172.441V45.4658" fill="#D51317"/>
<path d="M166.805 29.8538H154.748C156.806 25.2032 159.097 20.0035 160.635 16.7679C162.129 19.8254 164.608 25.1587 166.805 29.8538ZM130.412 24.9757C130.085 24.9757 129.759 24.9757 129.338 24.9311C129.338 19.6869 129.383 13.943 129.432 12.1174C135.79 12.1174 137.749 14.3536 137.749 18.0444C137.749 22.0122 135.552 24.9757 130.412 24.9757ZM175.967 37.8785C172.648 31.4518 165.637 16.7679 162.555 10.1582H161.902C158.399 18.1384 152.324 30.5365 148.351 38.2446C148.024 38.8581 147.648 39.3182 147.253 39.6694C145.442 40.6639 143.958 38.8185 140.791 33.7326C138.877 30.6305 136.304 27.3949 133.736 26.4401C138.783 25.6188 142.988 22.9769 142.988 18.0493C142.988 13.9479 138.877 10.5243 130.278 10.5243C128.081 10.5243 125.088 10.5688 123.035 10.6628V10.8904C123.921 11.0289 124.435 11.5286 124.485 12.622C124.534 14.0815 124.579 18.5045 124.579 25.6139C124.579 32.7233 124.534 37.1512 124.485 38.6107C124.44 39.7041 124.02 40.0256 123.035 40.4808L123.08 40.7084C124.247 40.6193 125.741 40.5699 126.914 40.5699C128.086 40.5699 129.719 40.6144 130.837 40.7084L130.887 40.4808C129.952 40.0702 129.487 39.7041 129.437 38.6107C129.388 37.1512 129.343 32.6837 129.343 26.6627C129.808 26.7072 130.278 26.7072 130.793 26.7072C132.851 27.1624 134.206 29.5817 135.186 32.3126C136.73 36.5526 138.362 40.9755 143.646 40.9755C144.091 40.9755 144.626 40.9508 145.155 40.8815C146.229 40.7925 147.648 40.6787 149.098 40.5649C150.216 40.4808 151.339 40.6094 152.512 40.7034L152.561 40.4759C150.973 39.8822 150.691 39.4715 151.344 37.8785C151.953 36.419 152.838 34.2768 153.917 31.813H167.75C169.199 34.9595 170.367 37.5569 170.832 38.6057C171.252 39.5161 170.926 39.9267 169.615 40.4759L169.659 40.7034C170.876 40.6144 172.885 40.5649 174.285 40.5649C175.685 40.5649 177.323 40.6094 178.679 40.7034L178.723 40.4759C177.788 40.2037 176.665 39.1994 175.967 37.8785Z" fill="#1D1D1B"/>
<path d="M106.656 18.7757C106.656 23.1096 104.321 26.1622 98.7103 26.1622C98.2452 26.1622 97.7307 26.1622 97.2161 26.1176C97.2161 19.9631 97.2656 13.9916 97.3101 12.1214C103.9 12.1214 106.656 14.3577 106.656 18.7757ZM111.89 18.7757C111.89 13.4424 105.721 10.5234 98.1512 10.5234C95.9545 10.5234 92.9614 10.568 90.9082 10.662V10.8895C91.7938 11.0281 92.3083 11.5278 92.3578 12.6211C92.4023 14.0806 92.4518 18.5036 92.4518 25.613C92.4518 32.7224 92.4073 37.1454 92.3578 38.6049C92.3133 39.6982 91.8927 40.0198 90.9082 40.475L90.9527 40.7026C92.1203 40.6135 93.6144 40.564 94.787 40.564C95.9595 40.564 97.5921 40.6086 98.7103 40.7026L98.7597 40.475C97.8247 40.0643 97.3596 39.6982 97.3101 38.6049C97.2656 37.1899 97.2161 32.9055 97.2161 27.8888C97.7307 27.9333 98.1957 27.9333 98.6657 27.9333C106.656 27.9333 111.89 24.9253 111.89 18.7707" fill="#1D1D1B"/>
<path d="M31.8912 38.6054C31.8417 37.146 31.7972 32.6785 31.7972 25.6136C31.7972 18.5487 31.8417 14.0812 31.8912 12.6217C31.9357 11.5283 32.4057 11.1622 33.3408 10.7516L33.2963 10.524C32.1732 10.6131 30.5851 10.6625 29.4175 10.6625C28.2499 10.6625 26.7063 10.618 25.5387 10.524L25.4893 10.7516C26.4688 11.2068 26.8894 11.5283 26.9388 12.6217C26.9834 14.0812 27.0328 18.5042 27.0328 25.6136C27.0328 32.723 26.9834 37.146 26.9388 38.6054C26.8894 39.6988 26.4738 40.0204 25.4893 40.4756L25.5387 40.7031C26.7063 40.6141 28.2004 40.5646 29.4175 40.5646C30.6346 40.5646 32.1732 40.6091 33.2963 40.7031L33.3408 40.4756C32.4057 40.0649 31.9407 39.6988 31.8912 38.6054ZM67.552 10.7516L67.5075 10.524C66.3844 10.6131 65.4989 10.6625 64.7963 10.6625C64.0493 10.6625 63.1142 10.618 62.2237 10.524L62.1792 10.7516C63.0648 11.1622 63.5793 11.5283 63.6287 12.6217C63.8167 15.5852 64.0047 19.0039 64.0047 25.6136C64.0047 27.8498 64.0493 31.4515 64.1433 34.0044C58.1173 28.1219 49.9838 19.8697 41.1972 10.618C40.2622 10.6625 39.3271 10.6625 38.3921 10.6625C37.645 10.6625 36.428 10.618 34.8398 10.524L34.7953 10.7516C36.0124 11.3008 36.804 12.3496 36.8534 13.9872C36.898 15.2191 36.9474 18.4992 36.9474 25.6136C36.9474 32.7279 36.8534 35.642 36.6654 38.6054C36.6209 39.6988 36.2004 40.0204 35.2158 40.4756L35.2653 40.7031C36.3884 40.6141 37.274 40.5646 37.9765 40.5646C38.7235 40.5646 39.6586 40.6091 40.5442 40.7031L40.5887 40.4756C39.7031 40.0649 39.1886 39.6988 39.1391 38.6054C38.9511 35.642 38.7631 32.2233 38.7631 25.6136C38.7631 21.0076 38.7186 17.5889 38.5306 14.5809C47.0847 23.0607 55.5892 31.7236 64.6083 41.1138H65.9639C65.8699 38.1503 65.8254 32.6785 65.8254 25.6136C65.8254 18.5487 65.9194 15.5852 66.1074 12.6217C66.1519 11.5283 66.6219 11.1622 67.557 10.7516M73.3207 16.2234C73.3207 13.8091 75.4233 11.8004 79.0201 11.8004C82.2903 11.8004 85.6546 13.1214 87.5247 17.1783L87.9452 17.0397L87.4802 12.1171C85.798 10.7021 82.7603 9.88086 79.2526 9.88086C73.7363 9.88086 69.2539 12.5722 69.2539 18.0441C69.2539 21.8288 71.7771 23.971 77.9465 26.6624C83.5074 29.0768 85.516 30.7638 85.516 33.7273C85.516 37.423 82.7109 39.4712 78.7381 39.4712C75.3244 39.4712 71.3071 37.6456 68.8285 32.812L68.4525 32.9506L69.249 38.6054C71.2576 40.2925 75.2749 41.3414 78.6441 41.3414C84.6255 41.3414 89.7659 38.2888 89.7659 32.5894C89.7659 26.89 86.3076 24.9308 80.4202 22.467C74.9039 20.1863 73.3158 18.7268 73.3158 16.2234" fill="#1D1D1B"/>
<path d="M11.2207 0.430424L11.1514 0C9.4149 0.024737 7.41615 0 5.4174 0H0.0890532L0 0.435371C1.99875 1.25169 2.72602 2.06801 2.81507 4.51697C2.90412 7.14899 2.99812 5.78351 2.99812 19.9529C2.99812 34.1222 2.90907 45.9019 2.81507 48.628C2.72602 51.0819 1.99875 51.8982 0 52.7145L0.0890532 53.1697C1.90475 52.9866 3.99255 52.8976 7.62394 52.8976H36.0467C36.8631 50.7207 37.9762 48.2074 38.8816 46.3917L38.4264 46.0306C32.5242 50.4783 25.6918 50.3596 15.797 50.3596H8.40563C8.31658 44.4573 8.22258 34.0282 8.22258 19.9529C8.22258 5.87751 8.31163 7.14899 8.40563 4.42792C8.49468 2.06801 9.22195 1.15769 11.2207 0.430424Z" fill="#1D1D1B"/>
<path d="M20.1649 7.25447C20.1946 7.05162 20.2095 6.84383 20.2095 6.63109C20.2095 4.10297 18.1563 2.0498 15.6282 2.0498C13.1 2.0498 11.0469 4.10297 11.0469 6.63109C11.0469 8.9069 12.7092 10.7968 14.8861 11.153C14.3666 12.568 13.3722 13.884 11.8582 14.8685C11.7197 14.9526 12.0908 15.4276 12.2788 15.388C15.178 14.067 19.7642 11.6428 20.1699 7.25447" fill="#1D1D1B"/>
<path d="M119.488 38.6049C119.438 37.1454 119.394 32.6779 119.394 25.613C119.394 18.5481 119.438 14.0806 119.488 12.6211C119.532 11.5278 120.002 11.1617 120.937 10.751L120.893 10.5234C119.77 10.6125 118.182 10.662 117.014 10.662C115.847 10.662 114.303 10.6174 113.135 10.5234L113.086 10.751C114.066 11.2062 114.486 11.5278 114.536 12.6211C114.58 14.0806 114.63 18.5036 114.63 25.613C114.63 32.7224 114.58 37.1503 114.536 38.6049C114.486 39.6982 114.066 40.0198 113.086 40.475L113.135 40.7026C114.303 40.6135 115.797 40.564 117.014 40.564C118.231 40.564 119.77 40.6086 120.893 40.7026L120.937 40.475C120.002 40.0643 119.537 39.6982 119.488 38.6049Z" fill="#1D1D1B"/>
<path d="M197.783 15.2613L198.016 15.0337C197.501 13.8958 196.799 11.7536 196.566 10.6553H171.982C171.75 11.7486 171.003 13.9403 170.488 15.0782L170.721 15.3058C173.759 13.0696 177.825 12.1593 181.422 12.1593H181.887V25.6113C181.887 32.6761 181.843 37.1436 181.793 38.6031C181.749 39.6965 181.328 40.0181 180.343 40.4732L180.388 40.7008C181.556 40.6118 183.055 40.5623 184.267 40.5623C185.479 40.5623 187.022 40.6068 188.146 40.7008L188.195 40.4732C187.26 40.0626 186.795 39.6965 186.745 38.6031C186.696 37.1436 186.651 32.6761 186.651 25.6113V12.1593H187.166C190.763 12.1593 194.735 13.0251 197.773 15.2613" fill="#1D1D1B"/>
<path d="M235.541 25.6127C235.541 34.231 231.336 39.4703 224.172 39.4703C217.008 39.4703 212.803 34.2261 212.803 25.6127C212.803 16.9992 217.008 11.755 224.172 11.755C231.336 11.755 235.541 16.9547 235.541 25.6127ZM240.553 25.6127C240.553 16.0395 232.899 9.88489 224.172 9.88489C215.445 9.88489 207.791 16.0395 207.791 25.6127C207.791 35.1859 215.445 41.3404 224.172 41.3404C232.899 41.3404 240.553 35.1414 240.553 25.6127Z" fill="#1D1D1B"/>
<path d="M273.442 10.751L273.398 10.5234C272.275 10.6174 271.389 10.662 270.687 10.662C269.94 10.662 269.004 10.6174 268.114 10.5234L268.069 10.751C268.955 11.1617 269.47 11.5278 269.519 12.6211C269.707 15.5846 269.895 19.0033 269.895 25.613C269.895 27.8492 269.94 31.4509 270.034 34.0038C264.003 28.1213 255.874 19.8691 247.087 10.6174C246.152 10.662 245.217 10.662 244.282 10.662C243.535 10.662 242.318 10.6174 240.73 10.5234L240.686 10.751C241.903 11.3002 242.694 12.349 242.744 13.9866C242.793 15.2185 242.838 18.4986 242.838 25.613C242.838 32.7274 242.744 35.6414 242.556 38.6049C242.511 39.6982 242.091 40.0198 241.106 40.475L241.151 40.7026C242.274 40.6086 243.159 40.564 243.862 40.564C244.609 40.564 245.544 40.6086 246.434 40.7026L246.479 40.475C245.588 40.0643 245.079 39.6982 245.029 38.6049C244.841 35.6414 244.653 32.2227 244.653 25.613C244.653 21.007 244.609 17.5883 244.421 14.5803C252.975 23.0601 261.479 31.723 270.499 41.1132H271.854C271.76 38.1497 271.716 32.6779 271.716 25.613C271.716 18.5481 271.81 15.5846 271.998 12.6211C272.042 11.5278 272.512 11.1617 273.447 10.751" fill="#1D1D1B"/>
<path d="M205.396 38.6049C205.347 37.1454 205.302 32.6779 205.302 25.613C205.302 18.5481 205.347 14.0806 205.396 12.6211C205.441 11.5278 205.911 11.1617 206.846 10.751L206.801 10.5234C205.678 10.6125 204.09 10.662 202.922 10.662C201.755 10.662 200.211 10.6174 199.044 10.5234L198.994 10.751C199.974 11.2062 200.394 11.5278 200.444 12.6211C200.488 14.0806 200.538 18.5036 200.538 25.613C200.538 32.7224 200.488 37.1503 200.444 38.6049C200.394 39.6982 199.974 40.0198 198.994 40.475L199.044 40.7026C200.211 40.6135 201.705 40.564 202.922 40.564C204.139 40.564 205.678 40.6086 206.801 40.7026L206.846 40.475C205.911 40.0643 205.446 39.6982 205.396 38.6049Z" fill="#1D1D1B"/>
<path d="M159.901 56.3915H164.572V55.1843H161.188V53.329H163.973V52.1219H161.188V50.2765H164.572V49.0792H159.901V56.3915ZM154.86 56.5448C156.498 56.5448 157.665 55.3772 157.665 53.8139V49.0792H156.374L156.384 53.8831C156.384 54.7489 155.775 55.3278 154.86 55.3278C153.945 55.3278 153.331 54.7489 153.331 53.8831V49.0792H152.04V53.8139C152.04 55.3822 153.217 56.5448 154.855 56.5448M146.355 55.3377C144.881 55.3377 143.817 54.2047 143.817 52.7156C143.817 51.2264 144.881 50.1182 146.355 50.1182C147.83 50.1182 148.893 51.2412 148.893 52.7156C148.893 54.1899 147.849 55.3377 146.355 55.3377ZM146.355 56.5448C147.117 56.5448 147.81 56.3173 148.399 55.9462L148.74 56.3915H150.358L149.349 55.0804C149.863 54.4323 150.185 53.616 150.185 52.7205C150.185 50.6277 148.473 48.9258 146.36 48.9258C144.248 48.9258 142.546 50.6277 142.546 52.7205C142.546 54.8132 144.258 56.5448 146.36 56.5448M139.414 56.3915H140.705V49.0792H139.414V56.3915ZM134.823 56.4014H136.114V50.2765H137.92V49.0792H133.022V50.2765H134.828V56.4014H134.823ZM130.242 56.3915H131.533V49.0792H130.242V56.3915ZM124.488 56.4014H128.748V55.1843H125.769V49.0792H124.493V56.4014H124.488ZM118.828 55.3377C117.364 55.3377 116.31 54.2047 116.31 52.7403C116.31 51.2759 117.364 50.133 118.828 50.133C120.292 50.133 121.366 51.266 121.366 52.7403C121.366 54.2146 120.292 55.3377 118.828 55.3377ZM118.828 56.5448C120.941 56.5448 122.642 54.833 122.642 52.7403C122.642 50.6475 120.941 48.9357 118.828 48.9357C116.716 48.9357 115.024 50.6277 115.024 52.7403C115.024 54.8528 116.735 56.5448 118.828 56.5448ZM110.185 52.9679V50.2567H111.174C111.887 50.2567 112.461 50.8553 112.461 51.6271C112.461 52.3989 111.882 52.9679 111.174 52.9679H110.185ZM108.894 56.3915H110.185V54.1849H111.174C112.599 54.1849 113.742 53.0421 113.742 51.6271C113.742 50.2122 112.599 49.0792 111.174 49.0792H108.894V56.3915Z" fill="white"/>
</svg>
